<svg width="21" height="24" version="1.1" xmlns="http://www.w3.org/2000/svg"><path fill="currentColor" d="M1.101 0l11.22 11.225 3.077-3.1L1.798.212A1.48 1.48 0 0 0 1.1 0zm-.94.522A1.295 1.295 0 0 0 0 1.158v21.814c0 .176.036.333.097.473l11.48-11.486L.162.522zm16.176 8.141L13.05 11.96l3.287 3.28 4.015-2.317c.571-.333.652-.755.648-.98-.006-.37-.239-.717-.632-.93-.342-.185-2.882-1.675-4.031-2.349zm-4.016 4.03L1.004 24c.188-.01.392-.051.583-.163.443-.26 9.407-5.482 9.407-5.482l4.42-2.562-3.093-3.1z"></path></svg>