<svg enable-background="new 0 0 511.999 511.999" viewBox="0 0 511.999 511.999" xmlns="http://www.w3.org/2000/svg"><path d="m117.776 174.345c-3.9-3.9-10.24-3.9-14.139 0-3.91 3.91-3.91 10.24 0 14.14 3.9 3.91 10.24 3.91 14.139 0 3.909-3.9 3.909-10.23 0-14.14z"/><path d="m253.199 447.718c4.409-5.972 6.792-13.167 6.792-20.732 0-19.298-15.7-34.999-34.999-34.999h-169.994c-9.353 0-18.142 3.64-24.749 10.249-6.61 6.608-10.25 15.397-10.25 24.75 0 7.749 2.536 14.915 6.815 20.72-15.923 8.372-26.814 25.072-26.814 44.277v10c0 5.523 4.478 10 10 10h259.99c5.522 0 10-4.477 10-10v-10c0-19.196-10.88-35.889-26.791-44.265zm-208.809-31.342c2.831-2.832 6.599-4.391 10.608-4.391h169.994c8.271 0 14.999 6.729 14.999 14.999 0 4.01-1.56 7.777-4.392 10.609-2.831 2.832-6.599 4.391-10.608 4.391h-169.993c-8.271 0-14.999-6.729-14.999-14.999 0-4.009 1.559-7.777 4.391-10.609zm-24.391 75.607c0-16.541 13.458-29.999 29.999-29.999h5 169.994 5c16.541 0 29.999 13.458 29.999 29.999z"/><path d="m502.693 420.124c-3.396-5.263-7.448-9.917-12.045-13.833l-46.725-40.753c-.364-.548-.786-1.068-1.269-1.551-.812-.811-1.732-1.444-2.71-1.918l-28.257-24.645-130.79-114.091c5.354-5.597 8.302-12.916 8.302-20.699 0-8.018-3.121-15.553-8.794-21.225-2.474-2.471-5.286-4.414-8.291-5.837l12.1-12.1c3.382.899 6.857 1.359 10.335 1.359 10.241-.001 20.483-3.899 28.279-11.695 7.558-7.557 11.72-17.602 11.72-28.285s-4.162-20.728-11.719-28.285l-84.848-84.846c-7.557-7.557-17.603-11.719-28.289-11.719-10.681 0-20.724 4.162-28.28 11.719-10.444 10.444-13.882 25.273-10.336 38.615l-120.725 120.724c-3.336-.887-6.807-1.355-10.353-1.355-10.688 0-20.729 4.159-28.28 11.709-15.596 15.596-15.596 40.973 0 56.57l84.847 84.848c7.799 7.798 18.042 11.697 28.285 11.697 10.244 0 20.487-3.899 28.286-11.697 10.444-10.445 13.882-25.273 10.336-38.615l12.075-12.076c1.451 3.03 3.42 5.826 5.866 8.271 5.666 5.666 13.199 8.787 21.215 8.787 7.775 0 15.091-2.943 20.696-8.291l139.306 160.054c.384.6.832 1.171 1.356 1.695.179.179.369.342.558.504l41.511 47.694c1.032 1.218 2.135 2.416 3.28 3.561 11.401 11.397 26.46 17.582 42.27 17.582 2.787 0 5.6-.192 8.417-.582 18.829-2.606 35.102-13.87 44.644-30.908 10.453-18.673 9.675-42.38-1.973-60.383zm-307.138-394.262c3.779-3.779 8.801-5.861 14.138-5.861 5.344 0 10.369 2.082 14.147 5.861l84.848 84.847c3.779 3.779 5.86 8.802 5.86 14.143s-2.081 10.364-5.861 14.143c-7.795 7.797-20.481 7.797-28.276 0l-84.851-84.851c-.002-.002-.003-.003-.005-.005-7.797-7.796-7.797-20.481 0-28.277zm-56.561 282.827c-7.798 7.798-20.489 7.799-28.287 0l-84.847-84.847c-7.799-7.799-7.799-20.487 0-28.287 3.772-3.773 8.794-5.851 14.138-5.851 5.343 0 10.362 2.077 14.133 5.847l84.862 84.862c7.798 7.795 7.798 20.481.001 28.276zm42.102-70.38-27.961 27.962-84.856-84.856 113.133-113.135 84.855 84.856-28.012 28.013c-.091.086-.18.17-.276.265l-56.538 56.539c-.117.115-.23.235-.345.356zm35.706 20.861c-.02.02-.039.039-.059.059l-7.042 7.042c-1.889 1.888-4.4 2.928-7.074 2.928-2.673 0-5.185-1.04-7.073-2.929-1.891-1.89-2.932-4.404-2.932-7.079 0-2.618.999-5.081 2.812-6.939l56.801-56.801c3.893-3.786 10.187-3.739 14.034.104 1.89 1.89 2.931 4.404 2.931 7.079 0 2.673-1.038 5.18-2.932 7.069l-7.001 7.001c-.048.047-.096.095-.143.143zm20.708 7.575 29.226-29.226 123.742 107.935-45.154 45.155zm120.975 138.986 47.099-47.1 15.107 13.177-49.045 49.046zm128.732 65.006c-6.454 11.523-17.365 19.128-29.936 20.868-12.542 1.736-24.865-2.395-33.807-11.333-.769-.768-1.505-1.569-2.191-2.381-.032-.038-.064-.076-.097-.113l-36.38-41.802 50.991-50.992 41.75 36.417c.031.028.063.055.096.083 3.125 2.657 5.898 5.848 8.251 9.494 7.562 11.685 8.092 27.665 1.323 39.759z"/><path d="m188.484 103.636c-3.906-3.905-10.236-3.905-14.142 0l-42.428 42.428c-3.905 3.905-3.905 10.237 0 14.141 1.953 1.953 4.512 2.929 7.071 2.929s5.118-.977 7.071-2.929l42.428-42.428c3.905-3.904 3.905-10.235 0-14.141z"/></svg>