<svg enable-background="new 0 0 60.969 60.969" viewBox="0 0 60.969 60.969" xmlns="http://www.w3.org/2000/svg"><path d="m5.193 12.367 1.668-.362c1.918-.416 3.141-2.314 2.726-4.233l-.878-4.05c-.354-1.626-1.819-2.805-3.483-2.805-.252 0-.505.027-.752.081l-1.668.361c-.927.201-1.721.752-2.236 1.554-.516.801-.69 1.753-.488 2.679l.878 4.05c.353 1.626 1.816 2.806 3.481 2.806.252 0 .505-.027.752-.081zm-2.278-3.148-.878-4.051c-.088-.404-.012-.821.215-1.173s.574-.594.978-.681l1.668-.362c.108-.023.219-.035.328-.035.73 0 1.373.517 1.527 1.229l.878 4.049c.182.841-.354 1.673-1.194 1.856l-1.668.362c-.831.18-1.677-.375-1.854-1.194zm57.012 33.997-15.736-15.704c-1.181-1.178-3.411-2.1-5.078-2.1l-3.429.001v-3.441c1.963 0 3.561-1.436 3.561-3.2s-1.598-3.2-3.561-3.2h-10.035c-1.963 0-3.56 1.436-3.56 3.2s1.597 3.2 3.56 3.2v3.444h-.578c-1.144 0-2.854-.709-3.663-1.517l-9.923-9.922c-1.34-1.341-3.694-1.339-5.034 0l-1.207 1.207c-.67.67-1.039 1.564-1.039 2.517s.369 1.847 1.04 2.517l11.936 11.92c1.181 1.179 3.411 2.102 5.078 2.102h7.408v8.133h-4.12c-.553 0-1 .448-1 1v4.12h-2.2c-1.963 0-3.56 1.597-3.56 3.56v5.44c0 1.963 1.597 3.56 3.56 3.56h20.48c1.963 0 3.561-1.597 3.561-3.56v-5.44c0-1.963-1.598-3.56-3.561-3.56h-2.199v-4.12c0-.552-.447-1-1-1h-4.12v-8.133h.817c1.143 0 2.854.709 3.663 1.517l13.701 13.701c.67.67 1.563 1.04 2.518 1.04.953 0 1.847-.369 2.517-1.04l1.207-1.207c.671-.671 1.039-1.564 1.039-2.517-.001-.954-.371-1.848-1.043-2.518zm-35.838-24.444c0-.65.714-1.2 1.56-1.2h10.035c.846 0 1.561.55 1.561 1.2s-.715 1.2-1.561 1.2h-10.035c-.846 0-1.56-.55-1.56-1.2zm3.56 3.2h6.035v3.442l-6.035.002zm16.738 29.08v5.44c0 .86-.7 1.56-1.561 1.56h-20.48c-.86 0-1.56-.7-1.56-1.56v-5.44c0-.86.699-1.56 1.56-1.56h3.2 14.081 3.199c.861 0 1.561.7 1.561 1.56zm-5.76-3.56h-12.081v-3.12h4.12 3.841 4.12zm-5.12-5.12h-1.841v-8.133h1.841zm2.818-10.133h-1.817-3.841-8.408c-1.143 0-2.855-.709-3.664-1.517l-11.936-11.92c-.293-.292-.454-.683-.454-1.102 0-.418.161-.81.453-1.103l1.207-1.207c.293-.292.685-.454 1.104-.454.418 0 .81.161 1.103.454l9.923 9.922c1.179 1.179 3.409 2.103 5.077 2.103h.578v2.249c0 .552.447 1 1 1s1-.448 1-1v-2.25l6.035-.002v2.251c0 .552.447 1 1 1s1-.448 1-1v-2.252l3.429-.001c1.144 0 2.856.708 3.666 1.516l12.931 12.904-3.276 3.541-11.033-11.03c-1.18-1.178-3.41-2.102-5.077-2.102zm22.191 14.597-1.207 1.207c-.586.586-1.62.584-2.206 0l-1.254-1.254 3.277-3.542 1.389 1.386c.293.292.454.683.454 1.102 0 .417-.161.808-.453 1.101z"/></svg>