<svg width="24" height="24" version="1.1" xmlns="http://www.w3.org/2000/svg"><path fill="currentColor" d="M3.169 23.194A1.714 1.714 0 0 1 .26 21.377l.463-.74c.297-.038.617-.065.991-.065 1.035 0 1.894.327 2.616.762l-1.162 1.86zm-1.454-4.337a1.715 1.715 0 0 1 0-3.428h2.264l6-9.6-2.004-3.205c-.5-.802-.257-1.86.545-2.362.803-.5 1.86-.255 2.363.545L12 2.595 13.118.807A1.712 1.712 0 0 1 15.48.262a1.713 1.713 0 0 1 .545 2.362L8.022 15.43h5.463c.437.314.92.8 1.431 1.613.38.602.564 1.215.667 1.815H1.715zm22.024 2.52A1.716 1.716 0 0 1 22.287 24c-.57 0-1.13-.286-1.455-.806l-7.748-12.397c.137-.34.313-.708.576-1.126a4.97 4.97 0 0 1 1.726-1.66l4.635 7.418h2.265a1.715 1.715 0 0 1 0 3.428h-.122l1.575 2.52z"></path></svg>