<svg enable-background="new 0 0 468.971 468.971" viewBox="0 0 468.971 468.971" xmlns="http://www.w3.org/2000/svg"><path d="m44.162 329.024c-17.14 17.14-17.14 45.029 0 62.169 8.57 8.57 19.828 12.855 31.085 12.855s22.515-4.285 31.084-12.855c17.14-17.14 17.14-45.029 0-62.169s-45.029-17.14-62.169 0zm51.563 51.563c-11.291 11.291-29.664 11.292-40.957 0-11.291-11.292-11.291-29.665 0-40.956 5.646-5.646 13.061-8.469 20.479-8.469 7.415 0 14.833 2.823 20.478 8.469 11.291 11.291 11.291 29.664 0 40.956z"/><path d="m414.483 329.024c-17.14-17.14-45.029-17.14-62.169 0s-17.14 45.029 0 62.169c8.57 8.57 19.827 12.855 31.084 12.855s22.515-4.285 31.084-12.855c17.141-17.14 17.141-45.029.001-62.169zm-10.607 51.563c-11.292 11.291-29.665 11.292-40.956 0-11.292-11.292-11.292-29.665 0-40.956 5.646-5.646 13.061-8.469 20.478-8.469 7.415 0 14.833 2.823 20.478 8.469 11.292 11.291 11.292 29.664 0 40.956z"/><path d="m466.774 432.878-25.125-25.125c11.008-13.409 16.996-30.067 16.996-47.645 0-20.099-7.827-38.995-22.039-53.207-27.549-27.549-71.318-29.226-100.846-5.038l-71.66-71.66 146.46-194.907c2.365-3.148 1.894-7.588-1.08-10.169-2.973-2.581-7.437-2.424-10.22.36l-169.938 169.939-169.939-169.939c-2.784-2.784-7.247-2.941-10.22-.36s-3.444 7.022-1.079 10.169l146.466 194.902-71.664 71.664c-29.528-24.187-73.297-22.511-100.846 5.039-14.213 14.212-22.04 33.108-22.04 53.208s7.827 38.995 22.039 53.208c14.669 14.669 33.938 22.004 53.208 22.004 19.269 0 38.538-7.335 53.208-22.004 14.212-14.212 22.039-33.108 22.039-53.208 0-16.413-5.224-32.02-14.877-44.933l1.173-.593c13.102-6.629 27.789-10.132 42.474-10.132 7.253 0 14.5.841 21.54 2.5 2.898.682 5.927-.414 7.716-2.794l20.804-27.683 20.805 27.686c1.789 2.381 4.817 3.478 7.713 2.795 21.537-5.067 44.271-2.358 64.014 7.63l1.171.593c-9.653 12.913-14.876 28.52-14.876 44.932 0 20.099 7.827 38.995 22.039 53.208 14.669 14.669 33.938 22.004 53.208 22.004 16.918 0 33.834-5.658 47.639-16.966l25.131 25.13c1.464 1.465 3.384 2.197 5.303 2.197s3.839-.732 5.303-2.197c2.93-2.93 2.93-7.679 0-10.608zm-352.462-33.704c-21.541 21.541-56.591 21.54-78.13 0-10.435-10.435-16.182-24.308-16.182-39.065s5.747-28.631 16.182-39.065c10.77-10.77 24.917-16.156 39.065-16.156s28.295 5.385 39.065 16.156c10.435 10.435 16.182 24.308 16.182 39.065s-5.747 28.63-16.182 39.065zm220.444-287.97-81.37 108.286-13.458-13.458zm-135.357 180.121c-15.171-2.851-30.988-2.416-46.019 1.255l50.27-50.27 16.292 21.68zm79.954-1.863c-6.714 0-13.448.619-20.102 1.868l-135.349-180.111 181.354 181.354c-8.478-2.067-17.177-3.111-25.903-3.111zm64.98 109.712c-10.435-10.435-16.182-24.308-16.182-39.065s5.747-28.631 16.182-39.065c10.77-10.77 24.917-16.156 39.065-16.156s28.295 5.385 39.065 16.156c10.435 10.435 16.181 24.308 16.181 39.065s-5.747 28.631-16.182 39.065c-21.539 21.541-56.588 21.541-78.129 0z"/></svg>